<svg width="16" height="15" viewBox="0 0 16 15" fill="none" xmlns="http://www.w3.org/2000/svg">
<path d="M6 2H10V3H6V2ZM6 8H10V9H6V8ZM6 10H10V11H6V10ZM15.1406 15H0.859375L2.10938 10H4V1C4 0.864583 4.02604 0.736979 4.07812 0.617188C4.13021 0.497396 4.20052 0.390625 4.28906 0.296875C4.3776 0.203125 4.48438 0.130208 4.60938 0.078125C4.73438 0.0260417 4.86458 0 5 0H11C11.1354 0 11.263 0.0260417 11.3828 0.078125C11.5026 0.130208 11.6094 0.200521 11.7031 0.289062C11.7969 0.377604 11.8698 0.484375 11.9219 0.609375C11.974 0.734375 12 0.864583 12 1V10H13.8906L15.1406 15ZM5 12H11V1H5V12ZM13.8594 14L13.1094 11H12V13H4V11H2.89062L2.14062 14H13.8594Z" fill="#C5C5C5"/>
</svg>
