<svg width="325" height="98" viewBox="0 0 325 98" fill="none" xmlns="http://www.w3.org/2000/svg">
<path d="M211 49C211 36.0044 205.838 23.5411 196.648 14.3518C187.459 5.16249 174.996 9.81141e-07 162 0C149.004 -9.81141e-07 136.541 5.16248 127.352 14.3518C118.162 23.541 113 36.0044 113 49L116.536 49C116.536 36.9422 121.326 25.3783 129.852 16.8522C138.378 8.32602 149.942 3.53608 162 3.53608C174.058 3.53608 185.622 8.32602 194.148 16.8522C202.674 25.3783 207.464 36.9422 207.464 49H211Z" fill="#C4C4C4"/>
<path d="M211 49C211 55.4348 209.733 61.8065 207.27 67.7515C204.808 73.6964 201.198 79.0982 196.648 83.6482C192.098 88.1983 186.696 91.8076 180.751 94.2701C174.807 96.7326 168.435 98 162 98C155.565 98 149.193 96.7326 143.249 94.2701C137.304 91.8076 131.902 88.1983 127.352 83.6482C122.802 79.0982 119.192 73.6964 116.73 67.7515C114.267 61.8065 113 55.4348 113 49L116.538 49C116.538 54.9702 117.714 60.8819 119.998 66.3976C122.283 71.9134 125.632 76.9251 129.853 81.1466C134.075 85.3682 139.087 88.7169 144.602 91.0016C150.118 93.2863 156.03 94.4622 162 94.4622C167.97 94.4622 173.882 93.2863 179.398 91.0016C184.913 88.7169 189.925 85.3682 194.147 81.1466C198.368 76.9251 201.717 71.9134 204.002 66.3976C206.286 60.8819 207.462 54.9702 207.462 49H211Z" fill="#C4C4C4"/>
<line x1="206" y1="61.5" x2="324.004" y2="61.5" stroke="#C4C4C4" stroke-width="3"/>
<line x1="208" y1="50.5" x2="288" y2="50.5" stroke="#C4C4C4" stroke-width="3"/>
<line x1="33" y1="50.5" x2="113" y2="50.5" stroke="#C4C4C4" stroke-width="3"/>
<line x1="208" y1="39.5" x2="265" y2="39.5" stroke="#C4C4C4" stroke-width="3"/>
<line x1="59" y1="39.5" x2="116" y2="39.5" stroke="#C4C4C4" stroke-width="3"/>
<line y1="61.5" x2="118.004" y2="61.5" stroke="#C4C4C4" stroke-width="3"/>
<path d="M135.915 56.9735C137.777 52.3897 142.711 49.8563 147.521 51.0143L155.266 52.8788C159.697 53.9455 164.313 53.9886 168.763 53.0047L178.013 50.9597C183.041 49.8481 188.091 52.7364 189.682 57.6337L195 74H129L135.915 56.9735Z" fill="#C4C4C4"/>
<ellipse cx="162" cy="33.5" rx="17" ry="15.5" fill="#C4C4C4"/>
</svg>
